<svg id="Capa_1" enable-background="new 0 0 512 512" height="512" viewBox="0 0 512 512" width="512" xmlns="http://www.w3.org/2000/svg"><g><circle id="XMLID_3_" cx="256" cy="256" fill="#caedff" r="256"/><path d="m512 256c0-39.407-8.913-76.729-24.819-110.074l-72.419-72.419-114.814 57.195-77.234-9.799-52.283-52.282-72.675 75.745 35.698 35.795-17.178 225.795 103.516 103.484c11.831 1.674 23.915 2.56 36.208 2.56 141.385 0 256-114.615 256-256z" fill="#a4d6ff"/><path d="m256 116.951s-31.274-16.056-67.221-8.377c-3.951-18.162-13.201-43.167-34.642-51.309-37.885-14.386-94.373 32.881-63.034 79.17 7.821 11.551 20.131 18.87 31.108 23.408-41.717 63.202-57.644 157.709-38.382 202.96 23.452 55.099 109.004 100.168 172.171 100.168l121.125-182.151z" fill="#a0674a"/><path d="m389.79 159.844c10.977-4.537 23.287-11.856 31.107-23.408 31.339-46.289-25.149-93.556-63.034-79.17-21.441 8.142-30.691 33.147-34.642 51.309-35.947-7.68-67.221 8.377-67.221 8.377v346.019c63.167 0 148.719-45.069 172.172-100.167 19.261-45.251 3.335-139.758-38.382-202.96z" fill="#774b38"/><g><path d="m166.77 116.4c-10.04 5.14-20.04 12.65-29.45 23.36-6.02-1.99-14-5.8-18.68-12.71-15.27-22.54 12.24-45.55 30.69-38.55 11.65 4.42 15.91 19.07 17.44 27.9z" fill="#774b38"/><path d="m393.36 127.05c-4.68 6.91-12.66 10.72-18.68 12.71-9.41-10.71-19.41-18.22-29.45-23.36 1.53-8.83 5.79-23.48 17.44-27.9 18.45-7 45.96 16.01 30.69 38.55z" fill="#4f3026"/></g><g><g><g><circle cx="192.762" cy="222.168" fill="#383c49" r="23.331"/></g><g><circle cx="319.238" cy="222.168" fill="#1c212b" r="23.331"/></g></g></g><g><path d="m256 278.376c-37.154 0-67.57 21.791-76.196 61.741-10.062 46.603 23.915 77.176 76.196 77.176l58.537-69.459z" fill="#e8b174"/></g><path d="m256 278.376c37.154 0 67.57 21.791 76.196 61.741 10.062 46.603-23.915 77.176-76.196 77.176z" fill="#cc935a"/><g><path d="m256 268.019c-12.482 0-46.77 1.643-42.43 27.197s33.428 33.038 42.43 33.038l25.943-32.976z" fill="#383c49"/><path d="m256 268.019c12.482 0 46.77 1.643 42.43 27.197s-33.428 33.038-42.43 33.038z" fill="#1c212b"/></g></g></svg>